<?xml version="1.0" encoding="iso-8859-1"?>
<!-- Uploaded to: SVG Repo, www.svgrepo.com, Generator: SVG Repo Mixer Tools -->
<!DOCTYPE svg PUBLIC "-//W3C//DTD SVG 1.1//EN" "http://www.w3.org/Graphics/SVG/1.1/DTD/svg11.dtd">
<svg fill="#000000" height="800px" width="800px" version="1.1" id="Capa_1" xmlns="http://www.w3.org/2000/svg" xmlns:xlink="http://www.w3.org/1999/xlink" 
	 viewBox="0 0 401.141 401.141" xml:space="preserve">
<g>
	<path d="M370.355,76.427c-15.015-16.264-36.613-24.511-64.195-24.511c-26.49,0-49.499,6.163-66.539,17.823
		c-15.063,10.308-25.271,24.807-28.743,40.827c-5.41,24.961,6.218,48.674,28.936,59.007c0.196,0.089,0.397,0.166,0.603,0.232
		c0.238,0.076,23.824,7.896,23.824,32.318c0,14.129-7.336,21.342-15.829,29.694c-9.165,9.012-19.552,19.227-19.552,38.794
		c0,0.072,0.001,0.144,0.004,0.216c0.025,0.636,0.722,15.744,10.385,30.908c16.176,25.384,44.115,30.712,64.704,30.712
		c30.843,0,55.571-18.898,71.512-54.652c14.036-31.483,17.295-66.445,17.959-76.41c0.137-2.049,0.325-4.396,0.533-6.998
		C396.163,166.789,400.758,109.36,370.355,76.427z M382.99,193.511c-0.213,2.655-0.404,5.052-0.544,7.143
		c-0.824,12.364-10.03,120.795-78.495,120.795c-60.388,0-63.929-47.871-64.093-50.963c0.042-14.873,7.562-22.266,16.265-30.823
		c8.96-8.811,19.116-18.799,19.116-37.538c0-25.634-20.176-39.046-31.144-42.688c-17.708-8.201-26.733-26.864-22.469-46.539
		c2.874-13.263,11.471-25.365,24.205-34.079c15.203-10.402,36.063-15.901,60.327-15.901c24.387,0,43.266,7.057,56.112,20.973
		C389.409,113.284,385.073,167.47,382.99,193.511z"/>
	<path d="M231.645,60.708c15.646,0,28.503-12.121,29.7-27.465c3.841,6.514,10.926,10.896,19.02,10.896
		c9.675,0,17.909-6.26,20.881-14.938c2.401,8.602,10.288,14.938,19.645,14.938c7.44,0,13.942-4.014,17.51-9.976
		c0.549,9.854,8.714,17.708,18.702,17.708c10.342,0,18.756-8.414,18.756-18.756s-8.414-18.756-18.756-18.756
		c-6.659,0-12.503,3.498-15.831,8.743c-0.334-10.967-9.336-19.79-20.381-19.79c-8.771,0-16.245,5.572-19.127,13.354
		C299.347,7.102,290.671,0,280.364,0c-10.875,0-19.932,7.909-21.735,18.276c-4.763-10.136-15.064-17.173-26.984-17.173
		c-16.434,0-29.804,13.369-29.804,29.803C201.841,47.339,215.211,60.708,231.645,60.708z M357.102,25.359
		c4.276,0,7.756,3.479,7.756,7.756c0,4.276-3.479,7.756-7.756,7.756c-4.276,0-7.755-3.479-7.755-7.756
		C349.347,28.839,352.825,25.359,357.102,25.359z M320.89,14.313c5.19,0,9.412,4.223,9.412,9.414c0,5.189-4.223,9.412-9.412,9.412
		c-5.189,0-9.411-4.223-9.411-9.412C311.479,18.535,315.7,14.313,320.89,14.313z M280.364,11c6.104,0,11.07,4.966,11.07,11.069
		s-4.966,11.069-11.07,11.069c-6.104,0-11.068-4.966-11.068-11.069S274.261,11,280.364,11z M231.645,12.104
		c10.367,0,18.801,8.435,18.801,18.803c0,10.367-8.434,18.802-18.801,18.802c-10.368,0-18.804-8.435-18.804-18.802
		C212.841,20.538,221.276,12.104,231.645,12.104z"/>
	<path d="M161.521,138.434c-17.041-11.66-40.05-17.823-66.539-17.823c-27.582,0-49.181,8.247-64.195,24.511
		C0.382,178.055,4.978,235.483,7.186,263.082c0.208,2.601,0.397,4.948,0.532,6.996c0.664,9.965,3.921,44.924,17.96,76.411
		c15.94,35.753,40.669,54.651,71.512,54.651c20.589,0,48.528-5.328,64.704-30.712c9.663-15.164,10.359-30.273,10.385-30.908
		c0.003-0.072,0.004-0.144,0.004-0.216c0-19.566-10.387-29.781-19.552-38.793c-8.493-8.353-15.829-15.566-15.829-29.695
		c0-24.23,22.869-32.005,23.824-32.317c0.205-0.066,0.406-0.143,0.603-0.232c22.718-10.334,34.346-34.048,28.935-59.008
		C186.791,163.238,176.584,148.74,161.521,138.434z M157.044,228.129c-10.967,3.644-31.143,17.055-31.143,42.688
		c0,18.739,10.156,28.727,19.117,37.538c8.701,8.557,16.22,15.951,16.264,30.819c-0.064,1.128-0.931,13.206-8.665,25.343
		c-10.835,17.003-29.483,25.624-55.428,25.624c-68.473,0-77.672-108.43-78.495-120.794c-0.14-2.091-0.331-4.487-0.544-7.143
		c-2.083-26.04-6.419-80.226,20.719-109.621c12.847-13.917,31.726-20.973,56.112-20.973c24.264,0,45.124,5.498,60.327,15.901
		c12.734,8.713,21.33,20.815,24.205,34.077C183.778,201.264,174.753,219.927,157.044,228.129z"/>
	<path d="M169.496,69.797c-11.92,0-22.222,7.037-26.984,17.173c-1.804-10.368-10.86-18.277-21.735-18.277
		c-10.306,0-18.981,7.101-21.398,16.665c-2.883-7.781-10.356-13.353-19.127-13.353c-11.045,0-20.047,8.824-20.381,19.791
		c-3.328-5.245-9.172-8.743-15.831-8.743c-10.342,0-18.756,8.414-18.756,18.756c0,10.343,8.414,18.757,18.756,18.757
		c9.988,0,18.154-7.855,18.702-17.71c3.567,5.962,10.07,9.976,17.51,9.976c9.357,0,17.243-6.336,19.645-14.938
		c2.973,8.679,11.207,14.938,20.881,14.938c8.094,0,15.178-4.382,19.02-10.896c1.196,15.344,14.055,27.465,29.7,27.465
		c16.433,0,29.804-13.368,29.804-29.801C199.3,83.166,185.93,69.797,169.496,69.797z M44.039,109.565
		c-4.276,0-7.756-3.479-7.756-7.757c0-4.276,3.479-7.756,7.756-7.756c4.276,0,7.755,3.48,7.755,7.756
		C51.794,106.086,48.316,109.565,44.039,109.565z M80.251,101.831c-5.189,0-9.412-4.223-9.412-9.412
		c0-5.191,4.223-9.414,9.412-9.414c5.189,0,9.412,4.223,9.412,9.414C89.663,97.608,85.441,101.831,80.251,101.831z M120.776,101.831
		c-6.104,0-11.07-4.966-11.07-11.069c0-6.104,4.966-11.069,11.07-11.069c6.104,0,11.068,4.966,11.068,11.069
		C131.845,96.865,126.88,101.831,120.776,101.831z M169.496,118.4c-10.367,0-18.801-8.434-18.801-18.801
		c0-10.368,8.434-18.803,18.801-18.803c10.368,0,18.804,8.435,18.804,18.803C188.3,109.967,179.864,118.4,169.496,118.4z"/>
</g>
</svg>